<svg xmlns="http://www.w3.org/2000/svg" width="350" height="350"><rect x="79" y="47" width="12" height="12" fill="#000"/><rect x="91" y="47" width="12" height="12" fill="#000"/><rect x="103" y="47" width="12" height="12" fill="#000"/><rect x="115" y="47" width="12" height="12" fill="#000"/><rect x="127" y="47" width="12" height="12" fill="#000"/><rect x="139" y="47" width="12" height="12" fill="#000"/><rect x="151" y="47" width="12" height="12" fill="#000"/><rect x="163" y="47" width="12" height="12" fill="#000"/><rect x="175" y="47" width="12" height="12" fill="#000"/><rect x="187" y="47" width="12" height="12" fill="#000"/><rect x="199" y="47" width="12" height="12" fill="#000"/><rect x="211" y="47" width="12" height="12" fill="#000"/><rect x="223" y="47" width="12" height="12" fill="#000"/><rect x="235" y="47" width="12" height="12" fill="#000"/><rect x="247" y="47" width="12" height="12" fill="#000"/><rect x="259" y="47" width="12" height="12" fill="#000"/><rect x="79" y="59" width="12" height="12" fill="#000"/><rect x="91" y="59" width="12" height="12" fill="#000"/><rect x="103" y="59" width="12" height="12" fill="#000"/><rect x="115" y="59" width="12" height="12" fill="#000"/><rect x="127" y="59" width="12" height="12" fill="#000"/><rect x="139" y="59" width="12" height="12" fill="#000"/><rect x="151" y="59" width="12" height="12" fill="#000"/><rect x="163" y="59" width="12" height="12" fill="#000"/><rect x="175" y="59" width="12" height="12" fill="#000"/><rect x="187" y="59" width="12" height="12" fill="#000"/><rect x="199" y="59" width="12" height="12" fill="#000"/><rect x="211" y="59" width="12" height="12" fill="#000"/><rect x="223" y="59" width="12" height="12" fill="#000"/><rect x="235" y="59" width="12" height="12" fill="#000"/><rect x="247" y="59" width="12" height="12" fill="#000"/><rect x="259" y="59" width="12" height="12" fill="#000"/><rect x="79" y="71" width="12" height="12" fill="#000"/><rect x="91" y="71" width="12" height="12" fill="#000"/><rect x="103" y="71" width="12" height="12" fill="#000"/><rect x="115" y="71" width="12" height="12" fill="#000"/><rect x="127" y="71" width="12" height="12" fill="#f00"/><rect x="139" y="71" width="12" height="12" fill="#f00"/><rect x="151" y="71" width="12" height="12" fill="#f00"/><rect x="163" y="71" width="12" height="12" fill="#f00"/><rect x="175" y="71" width="12" height="12" fill="#f00"/><rect x="187" y="71" width="12" height="12" fill="#f00"/><rect x="199" y="71" width="12" height="12" fill="#f00"/><rect x="211" y="71" width="12" height="12" fill="#f00"/><rect x="223" y="71" width="12" height="12" fill="#000"/><rect x="235" y="71" width="12" height="12" fill="#000"/><rect x="247" y="71" width="12" height="12" fill="#000"/><rect x="259" y="71" width="12" height="12" fill="#000"/><rect x="79" y="83" width="12" height="12" fill="#000"/><rect x="91" y="83" width="12" height="12" fill="#000"/><rect x="103" y="83" width="12" height="12" fill="#000"/><rect x="115" y="83" width="12" height="12" fill="#000"/><rect x="127" y="83" width="12" height="12" fill="#f00"/><rect x="139" y="83" width="12" height="12" fill="#f00"/><rect x="151" y="83" width="12" height="12" fill="#f00"/><rect x="163" y="83" width="12" height="12" fill="#f00"/><rect x="175" y="83" width="12" height="12" fill="#f00"/><rect x="187" y="83" width="12" height="12" fill="#f00"/><rect x="199" y="83" width="12" height="12" fill="#f00"/><rect x="211" y="83" width="12" height="12" fill="#f00"/><rect x="223" y="83" width="12" height="12" fill="#000"/><rect x="235" y="83" width="12" height="12" fill="#000"/><rect x="247" y="83" width="12" height="12" fill="#000"/><rect x="259" y="83" width="12" height="12" fill="#000"/><rect x="79" y="95" width="12" height="12" fill="#000"/><rect x="91" y="95" width="12" height="12" fill="#000"/><rect x="103" y="95" width="12" height="12" fill="#000"/><rect x="115" y="95" width="12" height="12" fill="#000"/><rect x="127" y="95" width="12" height="12" fill="#f00"/><rect x="139" y="95" width="12" height="12" fill="#f00"/><rect x="151" y="95" width="12" height="12" fill="#ff0"/><rect x="163" y="95" width="12" height="12" fill="#ff0"/><rect x="175" y="95" width="12" height="12" fill="#ff0"/><rect x="187" y="95" width="12" height="12" fill="#ff0"/><rect x="199" y="95" width="12" height="12" fill="#ff0"/><rect x="211" y="95" width="12" height="12" fill="#ff0"/><rect x="223" y="95" width="12" height="12" fill="#0f0"/><rect x="235" y="95" width="12" height="12" fill="#0f0"/><rect x="247" y="95" width="12" height="12" fill="#000"/><rect x="259" y="95" width="12" height="12" fill="#000"/><rect x="79" y="107" width="12" height="12" fill="#000"/><rect x="91" y="107" width="12" height="12" fill="#000"/><rect x="103" y="107" width="12" height="12" fill="#000"/><rect x="115" y="107" width="12" height="12" fill="#000"/><rect x="127" y="107" width="12" height="12" fill="#f00"/><rect x="139" y="107" width="12" height="12" fill="#f00"/><rect x="151" y="107" width="12" height="12" fill="#ff0"/><rect x="163" y="107" width="12" height="12" fill="#ff0"/><rect x="175" y="107" width="12" height="12" fill="#ff0"/><rect x="187" y="107" width="12" height="12" fill="#ff0"/><rect x="199" y="107" width="12" height="12" fill="#ff0"/><rect x="211" y="107" width="12" height="12" fill="#ff0"/><rect x="223" y="107" width="12" height="12" fill="#0f0"/><rect x="235" y="107" width="12" height="12" fill="#0f0"/><rect x="247" y="107" width="12" height="12" fill="#000"/><rect x="259" y="107" width="12" height="12" fill="#000"/><rect x="79" y="119" width="12" height="12" fill="#000"/><rect x="91" y="119" width="12" height="12" fill="#000"/><rect x="103" y="119" width="12" height="12" fill="#00f"/><rect x="115" y="119" width="12" height="12" fill="#00f"/><rect x="127" y="119" width="12" height="12" fill="#f0f"/><rect x="139" y="119" width="12" height="12" fill="#f0f"/><rect x="151" y="119" width="12" height="12" fill="#fff"/><rect x="163" y="119" width="12" height="12" fill="#fff"/><rect x="175" y="119" width="12" height="12" fill="#fff"/><rect x="187" y="119" width="12" height="12" fill="#fff"/><rect x="199" y="119" width="12" height="12" fill="#ff0"/><rect x="211" y="119" width="12" height="12" fill="#ff0"/><rect x="223" y="119" width="12" height="12" fill="#0f0"/><rect x="235" y="119" width="12" height="12" fill="#0f0"/><rect x="247" y="119" width="12" height="12" fill="#000"/><rect x="259" y="119" width="12" height="12" fill="#000"/><rect x="79" y="131" width="12" height="12" fill="#000"/><rect x="91" y="131" width="12" height="12" fill="#000"/><rect x="103" y="131" width="12" height="12" fill="#00f"/><rect x="115" y="131" width="12" height="12" fill="#00f"/><rect x="127" y="131" width="12" height="12" fill="#f0f"/><rect x="139" y="131" width="12" height="12" fill="#f0f"/><rect x="151" y="131" width="12" height="12" fill="#fff"/><rect x="163" y="131" width="12" height="12" fill="#fff"/><rect x="175" y="131" width="12" height="12" fill="#fff"/><rect x="187" y="131" width="12" height="12" fill="#fff"/><rect x="199" y="131" width="12" height="12" fill="#ff0"/><rect x="211" y="131" width="12" height="12" fill="#ff0"/><rect x="223" y="131" width="12" height="12" fill="#0f0"/><rect x="235" y="131" width="12" height="12" fill="#0f0"/><rect x="247" y="131" width="12" height="12" fill="#000"/><rect x="259" y="131" width="12" height="12" fill="#000"/><rect x="79" y="143" width="12" height="12" fill="#000"/><rect x="91" y="143" width="12" height="12" fill="#000"/><rect x="103" y="143" width="12" height="12" fill="#00f"/><rect x="115" y="143" width="12" height="12" fill="#00f"/><rect x="127" y="143" width="12" height="12" fill="#f0f"/><rect x="139" y="143" width="12" height="12" fill="#f0f"/><rect x="151" y="143" width="12" height="12" fill="#fff"/><rect x="163" y="143" width="12" height="12" fill="#fff"/><rect x="175" y="143" width="12" height="12" fill="#fff"/><rect x="187" y="143" width="12" height="12" fill="#fff"/><rect x="199" y="143" width="12" height="12" fill="#ff0"/><rect x="211" y="143" width="12" height="12" fill="#ff0"/><rect x="223" y="143" width="12" height="12" fill="#0f0"/><rect x="235" y="143" width="12" height="12" fill="#0f0"/><rect x="247" y="143" width="12" height="12" fill="#000"/><rect x="259" y="143" width="12" height="12" fill="#000"/><rect x="79" y="155" width="12" height="12" fill="#000"/><rect x="91" y="155" width="12" height="12" fill="#000"/><rect x="103" y="155" width="12" height="12" fill="#00f"/><rect x="115" y="155" width="12" height="12" fill="#00f"/><rect x="127" y="155" width="12" height="12" fill="#f0f"/><rect x="139" y="155" width="12" height="12" fill="#f0f"/><rect x="151" y="155" width="12" height="12" fill="#fff"/><rect x="163" y="155" width="12" height="12" fill="#fff"/><rect x="175" y="155" width="12" height="12" fill="#fff"/><rect x="187" y="155" width="12" height="12" fill="#fff"/><rect x="199" y="155" width="12" height="12" fill="#ff0"/><rect x="211" y="155" width="12" height="12" fill="#ff0"/><rect x="223" y="155" width="12" height="12" fill="#0f0"/><rect x="235" y="155" width="12" height="12" fill="#0f0"/><rect x="247" y="155" width="12" height="12" fill="#000"/><rect x="259" y="155" width="12" height="12" fill="#000"/><rect x="79" y="167" width="12" height="12" fill="#000"/><rect x="91" y="167" width="12" height="12" fill="#000"/><rect x="103" y="167" width="12" height="12" fill="#00f"/><rect x="115" y="167" width="12" height="12" fill="#00f"/><rect x="127" y="167" width="12" height="12" fill="#00f"/><rect x="139" y="167" width="12" height="12" fill="#00f"/><rect x="151" y="167" width="12" height="12" fill="#0ff"/><rect x="163" y="167" width="12" height="12" fill="#0ff"/><rect x="175" y="167" width="12" height="12" fill="#0ff"/><rect x="187" y="167" width="12" height="12" fill="#0ff"/><rect x="199" y="167" width="12" height="12" fill="#0f0"/><rect x="211" y="167" width="12" height="12" fill="#0f0"/><rect x="223" y="167" width="12" height="12" fill="#0f0"/><rect x="235" y="167" width="12" height="12" fill="#0f0"/><rect x="247" y="167" width="12" height="12" fill="#000"/><rect x="259" y="167" width="12" height="12" fill="#000"/><rect x="79" y="179" width="12" height="12" fill="#000"/><rect x="91" y="179" width="12" height="12" fill="#000"/><rect x="103" y="179" width="12" height="12" fill="#00f"/><rect x="115" y="179" width="12" height="12" fill="#00f"/><rect x="127" y="179" width="12" height="12" fill="#00f"/><rect x="139" y="179" width="12" height="12" fill="#00f"/><rect x="151" y="179" width="12" height="12" fill="#0ff"/><rect x="163" y="179" width="12" height="12" fill="#0ff"/><rect x="175" y="179" width="12" height="12" fill="#0ff"/><rect x="187" y="179" width="12" height="12" fill="#0ff"/><rect x="199" y="179" width="12" height="12" fill="#0f0"/><rect x="211" y="179" width="12" height="12" fill="#0f0"/><rect x="223" y="179" width="12" height="12" fill="#0f0"/><rect x="235" y="179" width="12" height="12" fill="#0f0"/><rect x="247" y="179" width="12" height="12" fill="#000"/><rect x="259" y="179" width="12" height="12" fill="#000"/><rect x="79" y="191" width="12" height="12" fill="#000"/><rect x="91" y="191" width="12" height="12" fill="#000"/><rect x="103" y="191" width="12" height="12" fill="#00f"/><rect x="115" y="191" width="12" height="12" fill="#00f"/><rect x="127" y="191" width="12" height="12" fill="#00f"/><rect x="139" y="191" width="12" height="12" fill="#00f"/><rect x="151" y="191" width="12" height="12" fill="#00f"/><rect x="163" y="191" width="12" height="12" fill="#00f"/><rect x="175" y="191" width="12" height="12" fill="#00f"/><rect x="187" y="191" width="12" height="12" fill="#00f"/><rect x="199" y="191" width="12" height="12" fill="#000"/><rect x="211" y="191" width="12" height="12" fill="#000"/><rect x="223" y="191" width="12" height="12" fill="#000"/><rect x="235" y="191" width="12" height="12" fill="#000"/><rect x="247" y="191" width="12" height="12" fill="#000"/><rect x="259" y="191" width="12" height="12" fill="#000"/><rect x="79" y="203" width="12" height="12" fill="#000"/><rect x="91" y="203" width="12" height="12" fill="#000"/><rect x="103" y="203" width="12" height="12" fill="#00f"/><rect x="115" y="203" width="12" height="12" fill="#00f"/><rect x="127" y="203" width="12" height="12" fill="#00f"/><rect x="139" y="203" width="12" height="12" fill="#00f"/><rect x="151" y="203" width="12" height="12" fill="#00f"/><rect x="163" y="203" width="12" height="12" fill="#00f"/><rect x="175" y="203" width="12" height="12" fill="#00f"/><rect x="187" y="203" width="12" height="12" fill="#00f"/><rect x="199" y="203" width="12" height="12" fill="#000"/><rect x="211" y="203" width="12" height="12" fill="#000"/><rect x="223" y="203" width="12" height="12" fill="#000"/><rect x="235" y="203" width="12" height="12" fill="#000"/><rect x="247" y="203" width="12" height="12" fill="#000"/><rect x="259" y="203" width="12" height="12" fill="#000"/><rect x="79" y="215" width="12" height="12" fill="#000"/><rect x="91" y="215" width="12" height="12" fill="#000"/><rect x="103" y="215" width="12" height="12" fill="#000"/><rect x="115" y="215" width="12" height="12" fill="#000"/><rect x="127" y="215" width="12" height="12" fill="#000"/><rect x="139" y="215" width="12" height="12" fill="#000"/><rect x="151" y="215" width="12" height="12" fill="#000"/><rect x="163" y="215" width="12" height="12" fill="#000"/><rect x="175" y="215" width="12" height="12" fill="#000"/><rect x="187" y="215" width="12" height="12" fill="#000"/><rect x="199" y="215" width="12" height="12" fill="#000"/><rect x="211" y="215" width="12" height="12" fill="#000"/><rect x="223" y="215" width="12" height="12" fill="#000"/><rect x="235" y="215" width="12" height="12" fill="#000"/><rect x="247" y="215" width="12" height="12" fill="#000"/><rect x="259" y="215" width="12" height="12" fill="#000"/><rect x="79" y="227" width="12" height="12" fill="#000"/><rect x="91" y="227" width="12" height="12" fill="#000"/><rect x="103" y="227" width="12" height="12" fill="#000"/><rect x="115" y="227" width="12" height="12" fill="#000"/><rect x="127" y="227" width="12" height="12" fill="#000"/><rect x="139" y="227" width="12" height="12" fill="#000"/><rect x="151" y="227" width="12" height="12" fill="#000"/><rect x="163" y="227" width="12" height="12" fill="#000"/><rect x="175" y="227" width="12" height="12" fill="#000"/><rect x="187" y="227" width="12" height="12" fill="#000"/><rect x="199" y="227" width="12" height="12" fill="#000"/><rect x="211" y="227" width="12" height="12" fill="#000"/><rect x="223" y="227" width="12" height="12" fill="#000"/><rect x="235" y="227" width="12" height="12" fill="#000"/><rect x="247" y="227" width="12" height="12" fill="#000"/><rect x="259" y="227" width="12" height="12" fill="#000"/><text x="50%" y="271" dominant-baseline="middle" text-anchor="middle" font-size="72px">ʕ◕ᴥ◕ʔ</text></svg>