<svg xmlns="http://www.w3.org/2000/svg" width="350" height="350"><rect x="47" y="47" width="16" height="16" fill="#000000"/><rect x="63" y="47" width="16" height="16" fill="#000000"/><rect x="79" y="47" width="16" height="16" fill="#000000"/><rect x="95" y="47" width="16" height="16" fill="#000000"/><rect x="111" y="47" width="16" height="16" fill="#000000"/><rect x="127" y="47" width="16" height="16" fill="#000000"/><rect x="143" y="47" width="16" height="16" fill="#000000"/><rect x="159" y="47" width="16" height="16" fill="#000000"/><rect x="175" y="47" width="16" height="16" fill="#000000"/><rect x="191" y="47" width="16" height="16" fill="#000000"/><rect x="207" y="47" width="16" height="16" fill="#000000"/><rect x="223" y="47" width="16" height="16" fill="#000000"/><rect x="239" y="47" width="16" height="16" fill="#000000"/><rect x="255" y="47" width="16" height="16" fill="#000000"/><rect x="271" y="47" width="16" height="16" fill="#000000"/><rect x="287" y="47" width="16" height="16" fill="#000000"/><rect x="47" y="63" width="16" height="16" fill="#000000"/><rect x="63" y="63" width="16" height="16" fill="#000000"/><rect x="79" y="63" width="16" height="16" fill="#000000"/><rect x="95" y="63" width="16" height="16" fill="#000000"/><rect x="111" y="63" width="16" height="16" fill="#000000"/><rect x="127" y="63" width="16" height="16" fill="#000000"/><rect x="143" y="63" width="16" height="16" fill="#000000"/><rect x="159" y="63" width="16" height="16" fill="#000000"/><rect x="175" y="63" width="16" height="16" fill="#000000"/><rect x="191" y="63" width="16" height="16" fill="#000000"/><rect x="207" y="63" width="16" height="16" fill="#000000"/><rect x="223" y="63" width="16" height="16" fill="#000000"/><rect x="239" y="63" width="16" height="16" fill="#000000"/><rect x="255" y="63" width="16" height="16" fill="#000000"/><rect x="271" y="63" width="16" height="16" fill="#000000"/><rect x="287" y="63" width="16" height="16" fill="#000000"/><rect x="47" y="79" width="16" height="16" fill="#000000"/><rect x="63" y="79" width="16" height="16" fill="#000000"/><rect x="79" y="79" width="16" height="16" fill="#000000"/><rect x="95" y="79" width="16" height="16" fill="#000000"/><rect x="111" y="79" width="16" height="16" fill="#ff0000"/><rect x="127" y="79" width="16" height="16" fill="#ff0000"/><rect x="143" y="79" width="16" height="16" fill="#ff0000"/><rect x="159" y="79" width="16" height="16" fill="#ff0000"/><rect x="175" y="79" width="16" height="16" fill="#ff0000"/><rect x="191" y="79" width="16" height="16" fill="#ff0000"/><rect x="207" y="79" width="16" height="16" fill="#ff0000"/><rect x="223" y="79" width="16" height="16" fill="#ff0000"/><rect x="239" y="79" width="16" height="16" fill="#000000"/><rect x="255" y="79" width="16" height="16" fill="#000000"/><rect x="271" y="79" width="16" height="16" fill="#000000"/><rect x="287" y="79" width="16" height="16" fill="#000000"/><rect x="47" y="95" width="16" height="16" fill="#000000"/><rect x="63" y="95" width="16" height="16" fill="#000000"/><rect x="79" y="95" width="16" height="16" fill="#000000"/><rect x="95" y="95" width="16" height="16" fill="#000000"/><rect x="111" y="95" width="16" height="16" fill="#ff0000"/><rect x="127" y="95" width="16" height="16" fill="#ff0000"/><rect x="143" y="95" width="16" height="16" fill="#ff0000"/><rect x="159" y="95" width="16" height="16" fill="#ff0000"/><rect x="175" y="95" width="16" height="16" fill="#ff0000"/><rect x="191" y="95" width="16" height="16" fill="#ff0000"/><rect x="207" y="95" width="16" height="16" fill="#ff0000"/><rect x="223" y="95" width="16" height="16" fill="#ff0000"/><rect x="239" y="95" width="16" height="16" fill="#000000"/><rect x="255" y="95" width="16" height="16" fill="#000000"/><rect x="271" y="95" width="16" height="16" fill="#000000"/><rect x="287" y="95" width="16" height="16" fill="#000000"/><rect x="47" y="111" width="16" height="16" fill="#000000"/><rect x="63" y="111" width="16" height="16" fill="#000000"/><rect x="79" y="111" width="16" height="16" fill="#000000"/><rect x="95" y="111" width="16" height="16" fill="#000000"/><rect x="111" y="111" width="16" height="16" fill="#ff0000"/><rect x="127" y="111" width="16" height="16" fill="#ff0000"/><rect x="143" y="111" width="16" height="16" fill="#ffff00"/><rect x="159" y="111" width="16" height="16" fill="#ffff00"/><rect x="175" y="111" width="16" height="16" fill="#ffff00"/><rect x="191" y="111" width="16" height="16" fill="#ffff00"/><rect x="207" y="111" width="16" height="16" fill="#ffff00"/><rect x="223" y="111" width="16" height="16" fill="#ffff00"/><rect x="239" y="111" width="16" height="16" fill="#00ff00"/><rect x="255" y="111" width="16" height="16" fill="#00ff00"/><rect x="271" y="111" width="16" height="16" fill="#000000"/><rect x="287" y="111" width="16" height="16" fill="#000000"/><rect x="47" y="127" width="16" height="16" fill="#000000"/><rect x="63" y="127" width="16" height="16" fill="#000000"/><rect x="79" y="127" width="16" height="16" fill="#000000"/><rect x="95" y="127" width="16" height="16" fill="#000000"/><rect x="111" y="127" width="16" height="16" fill="#ff0000"/><rect x="127" y="127" width="16" height="16" fill="#ff0000"/><rect x="143" y="127" width="16" height="16" fill="#ffff00"/><rect x="159" y="127" width="16" height="16" fill="#ffff00"/><rect x="175" y="127" width="16" height="16" fill="#ffff00"/><rect x="191" y="127" width="16" height="16" fill="#ffff00"/><rect x="207" y="127" width="16" height="16" fill="#ffff00"/><rect x="223" y="127" width="16" height="16" fill="#ffff00"/><rect x="239" y="127" width="16" height="16" fill="#00ff00"/><rect x="255" y="127" width="16" height="16" fill="#00ff00"/><rect x="271" y="127" width="16" height="16" fill="#000000"/><rect x="287" y="127" width="16" height="16" fill="#000000"/><rect x="47" y="143" width="16" height="16" fill="#000000"/><rect x="63" y="143" width="16" height="16" fill="#000000"/><rect x="79" y="143" width="16" height="16" fill="#0000ff"/><rect x="95" y="143" width="16" height="16" fill="#0000ff"/><rect x="111" y="143" width="16" height="16" fill="#ff00ff"/><rect x="127" y="143" width="16" height="16" fill="#ff00ff"/><rect x="143" y="143" width="16" height="16" fill="#ffffff"/><rect x="159" y="143" width="16" height="16" fill="#ffffff"/><rect x="175" y="143" width="16" height="16" fill="#ffffff"/><rect x="191" y="143" width="16" height="16" fill="#ffffff"/><rect x="207" y="143" width="16" height="16" fill="#ffff00"/><rect x="223" y="143" width="16" height="16" fill="#ffff00"/><rect x="239" y="143" width="16" height="16" fill="#00ff00"/><rect x="255" y="143" width="16" height="16" fill="#00ff00"/><rect x="271" y="143" width="16" height="16" fill="#000000"/><rect x="287" y="143" width="16" height="16" fill="#000000"/><rect x="47" y="159" width="16" height="16" fill="#000000"/><rect x="63" y="159" width="16" height="16" fill="#000000"/><rect x="79" y="159" width="16" height="16" fill="#0000ff"/><rect x="95" y="159" width="16" height="16" fill="#0000ff"/><rect x="111" y="159" width="16" height="16" fill="#ff00ff"/><rect x="127" y="159" width="16" height="16" fill="#ff00ff"/><rect x="143" y="159" width="16" height="16" fill="#ffffff"/><rect x="159" y="159" width="16" height="16" fill="#ffffff"/><rect x="175" y="159" width="16" height="16" fill="#ffffff"/><rect x="191" y="159" width="16" height="16" fill="#ffffff"/><rect x="207" y="159" width="16" height="16" fill="#ffff00"/><rect x="223" y="159" width="16" height="16" fill="#ffff00"/><rect x="239" y="159" width="16" height="16" fill="#00ff00"/><rect x="255" y="159" width="16" height="16" fill="#00ff00"/><rect x="271" y="159" width="16" height="16" fill="#000000"/><rect x="287" y="159" width="16" height="16" fill="#000000"/><rect x="47" y="175" width="16" height="16" fill="#000000"/><rect x="63" y="175" width="16" height="16" fill="#000000"/><rect x="79" y="175" width="16" height="16" fill="#0000ff"/><rect x="95" y="175" width="16" height="16" fill="#0000ff"/><rect x="111" y="175" width="16" height="16" fill="#ff00ff"/><rect x="127" y="175" width="16" height="16" fill="#ff00ff"/><rect x="143" y="175" width="16" height="16" fill="#ffffff"/><rect x="159" y="175" width="16" height="16" fill="#ffffff"/><rect x="175" y="175" width="16" height="16" fill="#ffffff"/><rect x="191" y="175" width="16" height="16" fill="#ffffff"/><rect x="207" y="175" width="16" height="16" fill="#ffff00"/><rect x="223" y="175" width="16" height="16" fill="#ffff00"/><rect x="239" y="175" width="16" height="16" fill="#00ff00"/><rect x="255" y="175" width="16" height="16" fill="#00ff00"/><rect x="271" y="175" width="16" height="16" fill="#000000"/><rect x="287" y="175" width="16" height="16" fill="#000000"/><rect x="47" y="191" width="16" height="16" fill="#000000"/><rect x="63" y="191" width="16" height="16" fill="#000000"/><rect x="79" y="191" width="16" height="16" fill="#0000ff"/><rect x="95" y="191" width="16" height="16" fill="#0000ff"/><rect x="111" y="191" width="16" height="16" fill="#ff00ff"/><rect x="127" y="191" width="16" height="16" fill="#ff00ff"/><rect x="143" y="191" width="16" height="16" fill="#ffffff"/><rect x="159" y="191" width="16" height="16" fill="#ffffff"/><rect x="175" y="191" width="16" height="16" fill="#ffffff"/><rect x="191" y="191" width="16" height="16" fill="#ffffff"/><rect x="207" y="191" width="16" height="16" fill="#ffff00"/><rect x="223" y="191" width="16" height="16" fill="#ffff00"/><rect x="239" y="191" width="16" height="16" fill="#00ff00"/><rect x="255" y="191" width="16" height="16" fill="#00ff00"/><rect x="271" y="191" width="16" height="16" fill="#000000"/><rect x="287" y="191" width="16" height="16" fill="#000000"/><rect x="47" y="207" width="16" height="16" fill="#000000"/><rect x="63" y="207" width="16" height="16" fill="#000000"/><rect x="79" y="207" width="16" height="16" fill="#0000ff"/><rect x="95" y="207" width="16" height="16" fill="#0000ff"/><rect x="111" y="207" width="16" height="16" fill="#0000ff"/><rect x="127" y="207" width="16" height="16" fill="#0000ff"/><rect x="143" y="207" width="16" height="16" fill="#00ffff"/><rect x="159" y="207" width="16" height="16" fill="#00ffff"/><rect x="175" y="207" width="16" height="16" fill="#00ffff"/><rect x="191" y="207" width="16" height="16" fill="#00ffff"/><rect x="207" y="207" width="16" height="16" fill="#00ff00"/><rect x="223" y="207" width="16" height="16" fill="#00ff00"/><rect x="239" y="207" width="16" height="16" fill="#00ff00"/><rect x="255" y="207" width="16" height="16" fill="#00ff00"/><rect x="271" y="207" width="16" height="16" fill="#000000"/><rect x="287" y="207" width="16" height="16" fill="#000000"/><rect x="47" y="223" width="16" height="16" fill="#000000"/><rect x="63" y="223" width="16" height="16" fill="#000000"/><rect x="79" y="223" width="16" height="16" fill="#0000ff"/><rect x="95" y="223" width="16" height="16" fill="#0000ff"/><rect x="111" y="223" width="16" height="16" fill="#0000ff"/><rect x="127" y="223" width="16" height="16" fill="#0000ff"/><rect x="143" y="223" width="16" height="16" fill="#00ffff"/><rect x="159" y="223" width="16" height="16" fill="#00ffff"/><rect x="175" y="223" width="16" height="16" fill="#00ffff"/><rect x="191" y="223" width="16" height="16" fill="#00ffff"/><rect x="207" y="223" width="16" height="16" fill="#00ff00"/><rect x="223" y="223" width="16" height="16" fill="#00ff00"/><rect x="239" y="223" width="16" height="16" fill="#00ff00"/><rect x="255" y="223" width="16" height="16" fill="#00ff00"/><rect x="271" y="223" width="16" height="16" fill="#000000"/><rect x="287" y="223" width="16" height="16" fill="#000000"/><rect x="47" y="239" width="16" height="16" fill="#000000"/><rect x="63" y="239" width="16" height="16" fill="#000000"/><rect x="79" y="239" width="16" height="16" fill="#0000ff"/><rect x="95" y="239" width="16" height="16" fill="#0000ff"/><rect x="111" y="239" width="16" height="16" fill="#0000ff"/><rect x="127" y="239" width="16" height="16" fill="#0000ff"/><rect x="143" y="239" width="16" height="16" fill="#0000ff"/><rect x="159" y="239" width="16" height="16" fill="#0000ff"/><rect x="175" y="239" width="16" height="16" fill="#0000ff"/><rect x="191" y="239" width="16" height="16" fill="#0000ff"/><rect x="207" y="239" width="16" height="16" fill="#000000"/><rect x="223" y="239" width="16" height="16" fill="#000000"/><rect x="239" y="239" width="16" height="16" fill="#000000"/><rect x="255" y="239" width="16" height="16" fill="#000000"/><rect x="271" y="239" width="16" height="16" fill="#000000"/><rect x="287" y="239" width="16" height="16" fill="#000000"/><rect x="47" y="255" width="16" height="16" fill="#000000"/><rect x="63" y="255" width="16" height="16" fill="#000000"/><rect x="79" y="255" width="16" height="16" fill="#0000ff"/><rect x="95" y="255" width="16" height="16" fill="#0000ff"/><rect x="111" y="255" width="16" height="16" fill="#0000ff"/><rect x="127" y="255" width="16" height="16" fill="#0000ff"/><rect x="143" y="255" width="16" height="16" fill="#0000ff"/><rect x="159" y="255" width="16" height="16" fill="#0000ff"/><rect x="175" y="255" width="16" height="16" fill="#0000ff"/><rect x="191" y="255" width="16" height="16" fill="#0000ff"/><rect x="207" y="255" width="16" height="16" fill="#000000"/><rect x="223" y="255" width="16" height="16" fill="#000000"/><rect x="239" y="255" width="16" height="16" fill="#000000"/><rect x="255" y="255" width="16" height="16" fill="#000000"/><rect x="271" y="255" width="16" height="16" fill="#000000"/><rect x="287" y="255" width="16" height="16" fill="#000000"/><rect x="47" y="271" width="16" height="16" fill="#000000"/><rect x="63" y="271" width="16" height="16" fill="#000000"/><rect x="79" y="271" width="16" height="16" fill="#000000"/><rect x="95" y="271" width="16" height="16" fill="#000000"/><rect x="111" y="271" width="16" height="16" fill="#000000"/><rect x="127" y="271" width="16" height="16" fill="#000000"/><rect x="143" y="271" width="16" height="16" fill="#000000"/><rect x="159" y="271" width="16" height="16" fill="#000000"/><rect x="175" y="271" width="16" height="16" fill="#000000"/><rect x="191" y="271" width="16" height="16" fill="#000000"/><rect x="207" y="271" width="16" height="16" fill="#000000"/><rect x="223" y="271" width="16" height="16" fill="#000000"/><rect x="239" y="271" width="16" height="16" fill="#000000"/><rect x="255" y="271" width="16" height="16" fill="#000000"/><rect x="271" y="271" width="16" height="16" fill="#000000"/><rect x="287" y="271" width="16" height="16" fill="#000000"/><rect x="47" y="287" width="16" height="16" fill="#000000"/><rect x="63" y="287" width="16" height="16" fill="#000000"/><rect x="79" y="287" width="16" height="16" fill="#000000"/><rect x="95" y="287" width="16" height="16" fill="#000000"/><rect x="111" y="287" width="16" height="16" fill="#000000"/><rect x="127" y="287" width="16" height="16" fill="#000000"/><rect x="143" y="287" width="16" height="16" fill="#000000"/><rect x="159" y="287" width="16" height="16" fill="#000000"/><rect x="175" y="287" width="16" height="16" fill="#000000"/><rect x="191" y="287" width="16" height="16" fill="#000000"/><rect x="207" y="287" width="16" height="16" fill="#000000"/><rect x="223" y="287" width="16" height="16" fill="#000000"/><rect x="239" y="287" width="16" height="16" fill="#000000"/><rect x="255" y="287" width="16" height="16" fill="#000000"/><rect x="271" y="287" width="16" height="16" fill="#000000"/><rect x="287" y="287" width="16" height="16" fill="#000000"/></svg>